<svg width="344" height="612" viewBox="0 0 344 612" fill="none" xmlns="http://www.w3.org/2000/svg">
<rect width="344" height="612" fill="white"/>
<rect x="26" y="29" width="291" height="555" rx="6" fill="#F4BBC3" stroke="black" stroke-width="8"/>
<path d="M37 44C37 42.3431 38.3431 41 40 41H303C304.657 41 306 42.3431 306 44V568C306 569.657 304.657 571 303 571H40C38.3431 571 37 569.657 37 568V44Z" fill="#F7E1D5" stroke="black" stroke-width="2"/>
<path d="M205.5 158.5C217 152.5 225 104.5 230.5 105C236 105.5 274.5 126 275 132C275.5 138 221 204 210.5 212C200 220 135 236.5 135 227C135 217.5 158.5 213 166 207.5C173.5 202 139.983 201.855 125 207.5C113.123 211.974 110.261 232.855 98.9999 227C94.5832 224.703 92.4997 227.5 90.4999 217.5C88.5001 207.5 112.469 181.373 135 169C159.399 155.601 194 164.5 205.5 158.5Z" fill="white"/>
<path d="M135.886 458.361C124.386 464.361 116.386 512.361 110.886 511.861C105.386 511.361 66.8861 490.861 66.3858 484.861C65.8856 478.861 120.386 412.861 130.886 404.861C141.386 396.861 206.386 380.361 206.386 389.861C206.386 399.361 182.886 403.861 175.386 409.361C167.886 414.861 201.402 415.006 216.386 409.361C228.263 404.887 231.125 384.006 242.386 389.861C246.803 392.158 248.886 389.361 250.886 399.361C252.886 409.361 228.917 435.488 206.386 447.861C181.987 461.26 147.386 452.361 135.886 458.361Z" fill="white"/>
<path fill-rule="evenodd" clip-rule="evenodd" d="M78.8011 87.0162L76.2535 72.4239L58.8195 50.7568L49.7999 51.9039L46.5552 60.3155L64.3823 81.8696L78.8011 87.0162Z" stroke="black" stroke-width="2" stroke-linecap="round" stroke-linejoin="round"/>
<path fill-rule="evenodd" clip-rule="evenodd" d="M72.1501 73.905L56.1994 54.9965L50.1159 51.9696L51.0353 58.9684L67.2034 78.0763L78.4189 86.5141L72.1501 73.905Z" stroke="black" stroke-linecap="round" stroke-linejoin="round"/>
<path d="M76.2607 72.3662L72.0548 73.9763L67.1996 77.8576L64.6171 81.9473" stroke="black" stroke-width="2" stroke-linecap="round" stroke-linejoin="round"/>
<path d="M58.5971 50.9418L56.0949 55.0756L51.2272 59.0704L46.6106 60.325" stroke="black" stroke-width="2" stroke-linecap="round" stroke-linejoin="round"/>
<path fill-rule="evenodd" clip-rule="evenodd" d="M265.684 87.0162L268.232 72.4239L285.666 50.7568L294.685 51.9039L297.93 60.3155L280.103 81.8696L265.684 87.0162Z" stroke="black" stroke-width="2" stroke-linecap="round" stroke-linejoin="round"/>
<path fill-rule="evenodd" clip-rule="evenodd" d="M272.335 73.905L288.286 54.9965L294.369 51.9696L293.45 58.9684L277.282 78.0763L266.066 86.5141L272.335 73.905Z" stroke="black" stroke-linecap="round" stroke-linejoin="round"/>
<path d="M268.225 72.3662L272.431 73.9763L277.286 77.8576L279.868 81.9473" stroke="black" stroke-width="2" stroke-linecap="round" stroke-linejoin="round"/>
<path d="M285.888 50.9418L288.39 55.0756L293.258 59.0704L297.875 60.325" stroke="black" stroke-width="2" stroke-linecap="round" stroke-linejoin="round"/>
<path fill-rule="evenodd" clip-rule="evenodd" d="M77.8011 525.984L75.2535 540.576L57.8195 562.243L48.7999 561.096L45.5552 552.684L63.3823 531.13L77.8011 525.984Z" stroke="black" stroke-width="2" stroke-linecap="round" stroke-linejoin="round"/>
<path fill-rule="evenodd" clip-rule="evenodd" d="M71.1501 539.095L55.1994 558.004L49.1159 561.03L50.0353 554.032L66.2034 534.924L77.4189 526.486L71.1501 539.095Z" stroke="black" stroke-linecap="round" stroke-linejoin="round"/>
<path d="M75.2607 540.634L71.0548 539.024L66.1996 535.142L63.6171 531.053" stroke="black" stroke-width="2" stroke-linecap="round" stroke-linejoin="round"/>
<path d="M57.5971 562.058L55.0949 557.924L50.2272 553.93L45.6106 552.675" stroke="black" stroke-width="2" stroke-linecap="round" stroke-linejoin="round"/>
<path fill-rule="evenodd" clip-rule="evenodd" d="M265.684 525.984L268.232 540.576L285.666 562.243L294.685 561.096L297.93 552.684L280.103 531.13L265.684 525.984Z" stroke="black" stroke-width="2" stroke-linecap="round" stroke-linejoin="round"/>
<path fill-rule="evenodd" clip-rule="evenodd" d="M272.335 539.095L288.286 558.004L294.369 561.03L293.45 554.032L277.282 534.924L266.066 526.486L272.335 539.095Z" stroke="black" stroke-linecap="round" stroke-linejoin="round"/>
<path d="M268.225 540.634L272.431 539.024L277.286 535.142L279.868 531.053" stroke="black" stroke-width="2" stroke-linecap="round" stroke-linejoin="round"/>
<path d="M285.888 562.058L288.39 557.924L293.258 553.93L297.875 552.675" stroke="black" stroke-width="2" stroke-linecap="round" stroke-linejoin="round"/>
<path fill-rule="evenodd" clip-rule="evenodd" d="M163.52 578.77C163.551 576.129 164.363 573.556 165.854 571.375C167.344 569.194 169.446 567.503 171.896 566.514C174.345 565.525 177.032 565.283 179.619 565.817C182.206 566.352 184.576 567.639 186.433 569.518C188.29 571.397 189.549 573.783 190.053 576.376C190.557 578.969 190.282 581.653 189.264 584.09C188.246 586.528 186.53 588.61 184.332 590.074C182.134 591.538 179.551 592.32 176.91 592.32C175.141 592.31 173.391 591.951 171.761 591.264C170.131 590.578 168.652 589.577 167.408 588.318C166.165 587.06 165.182 585.569 164.514 583.931C163.847 582.293 163.509 580.539 163.52 578.77Z" fill="#F29F63" stroke="black" stroke-width="4" stroke-linecap="round" stroke-linejoin="round"/>
<path fill-rule="evenodd" clip-rule="evenodd" d="M159 34.55C159.032 37.1913 159.844 39.7642 161.334 41.945C162.825 44.1258 164.927 45.8171 167.376 46.8061C169.825 47.7951 172.512 48.0375 175.099 47.5029C177.686 46.9684 180.057 45.6806 181.914 43.8018C183.77 41.9229 185.03 39.5369 185.533 36.944C186.037 34.3511 185.763 31.667 184.745 29.2296C183.727 26.7922 182.011 24.7104 179.812 23.246C177.614 21.7817 175.032 21.0002 172.39 21C170.621 21.0105 168.872 21.3693 167.242 22.0559C165.611 22.7425 164.132 23.7436 162.889 25.0018C161.645 26.26 160.662 27.7509 159.995 29.3892C159.328 31.0274 158.99 32.7811 159 34.55Z" fill="#F29F63" stroke="black" stroke-width="4" stroke-linecap="round" stroke-linejoin="round"/>
<path d="M177.05 545.372L176.855 558.465" stroke="white" stroke-width="2" stroke-linecap="round" stroke-linejoin="round"/>
<path d="M177.374 524.101L177.049 545.372" stroke="white" stroke-width="2" stroke-linecap="round" stroke-linejoin="round"/>
<path d="M138.491 554.245L153.536 563.988" stroke="white" stroke-width="2" stroke-linecap="round" stroke-linejoin="round"/>
<path d="M123.291 544.4L130.359 548.983" stroke="white" stroke-width="2" stroke-linecap="round" stroke-linejoin="round"/>
<path d="M228.461 542.03L196.491 562.771" stroke="white" stroke-width="2" stroke-linecap="round" stroke-linejoin="round"/>
<path d="M156.247 550.492L162.641 559.974" stroke="white" stroke-width="2" stroke-linecap="round" stroke-linejoin="round"/>
<path d="M149.969 541.184L156.246 550.492" stroke="white" stroke-width="2" stroke-linecap="round" stroke-linejoin="round"/>
<path d="M148.218 538.592L149.969 541.184" stroke="white" stroke-width="2" stroke-linecap="round" stroke-linejoin="round"/>
<path d="M136.299 520.909L142.252 529.735" stroke="white" stroke-width="2" stroke-linecap="round" stroke-linejoin="round"/>
<path d="M193.145 551.456L187.957 559.089" stroke="white" stroke-width="2" stroke-linecap="round" stroke-linejoin="round"/>
<path d="M214.35 520L202.677 537.383" stroke="white" stroke-width="2" stroke-linecap="round" stroke-linejoin="round"/>
<path d="M217.903 565.347L240.341 560.148" stroke="white" stroke-width="2" stroke-linecap="round" stroke-linejoin="round"/>
<path d="M118.336 562.381L132.733 565.7" stroke="white" stroke-width="2" stroke-linecap="round" stroke-linejoin="round"/>
<path d="M173.05 68.3276L172.855 55.2348" stroke="white" stroke-width="2" stroke-linecap="round" stroke-linejoin="round"/>
<path d="M173.374 89.5986L173.049 68.3277" stroke="white" stroke-width="2" stroke-linecap="round" stroke-linejoin="round"/>
<path d="M134.491 59.4543L149.536 49.7118" stroke="white" stroke-width="2" stroke-linecap="round" stroke-linejoin="round"/>
<path d="M119.291 69.2996L126.359 64.7167" stroke="white" stroke-width="2" stroke-linecap="round" stroke-linejoin="round"/>
<path d="M224.461 71.6699L192.491 50.9284" stroke="white" stroke-width="2" stroke-linecap="round" stroke-linejoin="round"/>
<path d="M152.247 63.2075L158.641 53.7257" stroke="white" stroke-width="2" stroke-linecap="round" stroke-linejoin="round"/>
<path d="M145.969 72.5154L152.246 63.2074" stroke="white" stroke-width="2" stroke-linecap="round" stroke-linejoin="round"/>
<path d="M144.218 75.1072L145.969 72.5155" stroke="white" stroke-width="2" stroke-linecap="round" stroke-linejoin="round"/>
<path d="M132.299 92.7908L138.252 83.9648" stroke="white" stroke-width="2" stroke-linecap="round" stroke-linejoin="round"/>
<path d="M189.145 62.2434L183.957 54.6105" stroke="white" stroke-width="2" stroke-linecap="round" stroke-linejoin="round"/>
<path d="M210.35 93.6995L198.677 76.3161" stroke="white" stroke-width="2" stroke-linecap="round" stroke-linejoin="round"/>
<path d="M213.903 48.3526L236.341 53.5518" stroke="white" stroke-width="2" stroke-linecap="round" stroke-linejoin="round"/>
<path d="M114.336 51.3186L128.733 48" stroke="white" stroke-width="2" stroke-linecap="round" stroke-linejoin="round"/>
<path fill-rule="evenodd" clip-rule="evenodd" d="M144.829 368L145.503 377.349L144.829 368Z" fill="#E5E5E5"/>
<path d="M144.829 368L145.503 377.349" stroke="black" stroke-linecap="round" stroke-linejoin="round"/>
<path fill-rule="evenodd" clip-rule="evenodd" d="M139 373.08L151 372.606L139 373.08Z" fill="#E5E5E5"/>
<path d="M139 373.08L151 372.606" stroke="black" stroke-linecap="round" stroke-linejoin="round"/>
<path fill-rule="evenodd" clip-rule="evenodd" d="M232.829 227L233.503 236.349L232.829 227Z" fill="#E5E5E5"/>
<path d="M232.829 227L233.503 236.349" stroke="black" stroke-linecap="round" stroke-linejoin="round"/>
<path fill-rule="evenodd" clip-rule="evenodd" d="M227 232.08L239 231.606L227 232.08Z" fill="#E5E5E5"/>
<path d="M227 232.08L239 231.606" stroke="black" stroke-linecap="round" stroke-linejoin="round"/>
<path fill-rule="evenodd" clip-rule="evenodd" d="M92.6565 349.682C91.1965 362.162 81.2465 360.402 86.5365 362.242C92.2865 364.242 93.1065 375.402 93.2965 372.082C93.8965 361.682 105.177 362.922 99.8165 361.292C92.1965 358.962 93.0965 345.902 92.6565 349.682Z" stroke="black" stroke-linecap="round" stroke-linejoin="round"/>
<path fill-rule="evenodd" clip-rule="evenodd" d="M245.535 276.662C244.099 288.776 234.306 287.068 239.512 288.854C245.171 290.795 245.978 301.628 246.165 298.405C246.756 288.31 257.858 289.514 252.582 287.932C245.083 285.67 245.969 272.993 245.535 276.662Z" stroke="black" stroke-linecap="round" stroke-linejoin="round"/>
<path d="M84 467.733C84 467.733 127.79 413.733 136.76 405.403C145.94 396.863 213.9 381.663 212.13 388.333C208.89 400.533 197.64 400.253 180 407.153C177.39 408.153 222.23 407.983 226.9 406.043C229.47 404.983 231.43 397.763 237.36 395.043C240.58 393.593 244.36 386.393 247.03 386.043C251.16 385.483 252.5 390.553 252.5 390.553C252.5 390.553 259.24 389.673 259.1 392.653C258.87 397.723 246.1 407.303 246.1 407.303C246.1 407.303 233.44 420.943 223.62 433.453C219.62 438.453 213.73 444.453 210.17 444.953C188.82 447.633 142 450.893 139.35 454.513C136.44 458.513 116.9 509.863 116.9 509.863" stroke="black" stroke-width="2" stroke-linecap="round" stroke-linejoin="round"/>
<path d="M124.42 424.083C124.42 424.083 136.42 417.813 150.03 422.633C160.304 426.289 171.415 426.904 182.03 424.403" stroke="black" stroke-width="2" stroke-linecap="round" stroke-linejoin="round"/>
<path d="M179.34 412.033C179.34 412.033 176.28 415.943 169.34 418.633C162.4 421.323 151.63 422.823 151.63 422.823" stroke="black" stroke-width="2" stroke-linecap="round" stroke-linejoin="round"/>
<path d="M194 431.653C197.228 432.372 200.562 432.48 203.83 431.973C208.41 431.053 211.64 431.253 212.36 427.973C212.92 425.403 213.25 421.893 215.26 417.973C217.27 414.053 220.69 409.113 223.47 411.973C226.25 414.833 223.31 432.913 223.31 432.913" stroke="black" stroke-width="2" stroke-linecap="round" stroke-linejoin="round"/>
<path d="M197.4 422.033L213.68 421.893" stroke="black" stroke-width="2" stroke-linecap="round" stroke-linejoin="round"/>
<path d="M198.19 415.293L217.07 414.293" stroke="black" stroke-width="2" stroke-linecap="round" stroke-linejoin="round"/>
<path fill-rule="evenodd" clip-rule="evenodd" d="M222.37 411.643C221.47 411.053 219.67 419.193 220.17 422.023C220.67 424.853 224.38 422.973 224.38 422.973C224.38 422.973 226.11 414.123 222.37 411.643Z" fill="black" stroke="black" stroke-width="2" stroke-linecap="round" stroke-linejoin="round"/>
<path d="M225 414.033C225 414.033 232.11 400.743 237.69 396.433C243.27 392.123 247.11 395.203 247.11 398.743C247.11 401.883 244.63 408.743 244.63 408.743" stroke="black" stroke-width="2" stroke-linecap="round" stroke-linejoin="round"/>
<path fill-rule="evenodd" clip-rule="evenodd" d="M246.63 396.783C246.55 395.043 240.29 401.623 239.29 405.063C238.29 408.503 243.51 410.303 244.39 408.613C245.69 406.123 247 404.783 246.63 396.783Z" fill="black" stroke="black" stroke-width="2" stroke-linecap="round" stroke-linejoin="round"/>
<path fill-rule="evenodd" clip-rule="evenodd" d="M251.92 390.033C251.92 390.033 247.5 406.933 247.39 404.833C247.31 403.123 247.39 399.483 247.51 397.393C247.7 393.663 251.92 390.033 251.92 390.033Z" fill="black" stroke="black" stroke-width="2" stroke-linecap="round" stroke-linejoin="round"/>
<path d="M118.5 198.5C118.5 198.5 110.992 212.12 105.412 216.43C99.832 220.74 95.9921 217.66 95.9921 214.12C95.9921 210.98 98.472 204.12 98.472 204.12" stroke="black" stroke-width="2" stroke-linecap="round" stroke-linejoin="round"/>
<path d="M259.102 145.13C259.102 145.13 215.312 199.13 206.342 207.46C197.162 216 129.202 231.2 130.972 224.53C134.212 212.33 145.462 212.61 163.102 205.71C165.712 204.71 120.872 204.88 116.202 206.82C113.632 207.88 111.672 215.1 105.742 217.82C102.522 219.27 98.7421 226.47 96.0721 226.82C91.9421 227.38 90.6021 222.31 90.6021 222.31C90.6021 222.31 83.862 223.19 84.002 220.21C84.232 215.14 97.002 205.56 97.002 205.56C97.002 205.56 109.662 191.92 119.482 179.41C123.482 174.41 129.372 168.41 132.932 167.91C154.282 165.23 201.102 161.97 203.752 158.35C206.662 154.35 226.202 103 226.202 103" stroke="black" stroke-width="2" stroke-linecap="round" stroke-linejoin="round"/>
<path d="M218.682 188.78C218.682 188.78 206.682 195.05 193.072 190.23C182.798 186.574 171.687 185.959 161.072 188.46" stroke="black" stroke-width="2" stroke-linecap="round" stroke-linejoin="round"/>
<path d="M163.762 200.83C163.762 200.83 166.822 196.92 173.762 194.23C180.702 191.54 191.472 190.04 191.472 190.04" stroke="black" stroke-width="2" stroke-linecap="round" stroke-linejoin="round"/>
<path d="M149.102 181.21C145.874 180.492 142.54 180.383 139.272 180.89C134.692 181.81 131.462 181.61 130.742 184.89C130.182 187.46 129.852 190.97 127.842 194.89C125.832 198.81 122.412 203.75 119.632 200.89C116.852 198.03 119.792 179.95 119.792 179.95" stroke="black" stroke-width="2" stroke-linecap="round" stroke-linejoin="round"/>
<path d="M145.702 190.83L129.422 190.97" stroke="black" stroke-width="2" stroke-linecap="round" stroke-linejoin="round"/>
<path d="M144.912 197.57L126.032 198.57" stroke="black" stroke-width="2" stroke-linecap="round" stroke-linejoin="round"/>
<path fill-rule="evenodd" clip-rule="evenodd" d="M120.732 201.22C121.632 201.81 123.432 193.67 122.932 190.84C122.432 188.01 118.722 189.89 118.722 189.89C118.722 189.89 116.992 198.74 120.732 201.22Z" fill="black" stroke="black" stroke-width="2" stroke-linecap="round" stroke-linejoin="round"/>
<path fill-rule="evenodd" clip-rule="evenodd" d="M96.4722 216.08C96.5522 217.82 102.812 211.24 103.812 207.8C104.812 204.36 99.5922 202.56 98.7122 204.25C97.4122 206.74 96.1022 208.08 96.4722 216.08Z" fill="black" stroke="black" stroke-width="2" stroke-linecap="round" stroke-linejoin="round"/>
<path fill-rule="evenodd" clip-rule="evenodd" d="M91.1819 222.83C91.1819 222.83 95.6019 205.93 95.7119 208.03C95.7919 209.74 95.7119 213.38 95.5919 215.47C95.4019 219.2 91.1819 222.83 91.1819 222.83Z" fill="black" stroke="black" stroke-width="2" stroke-linecap="round" stroke-linejoin="round"/>
<path fill-rule="evenodd" clip-rule="evenodd" d="M120.565 269.807L111.202 286.116L110.622 321.419L120.356 327.623L130.353 322.049L130.457 286.538L120.565 269.807Z" fill="white"/>
<path d="M180.245 316.135C180.245 316.135 185.008 321.367 186.409 327.814C188.215 336.135 185.599 341.844 188.721 349.084C192.916 358.836 200.599 367 200.599 367" stroke="white" stroke-linecap="round" stroke-linejoin="round"/>
<path fill-rule="evenodd" clip-rule="evenodd" d="M166 309C166 309 172.557 314.831 175.941 316.059C179.325 317.287 182.017 315.688 179.536 313.92C177.055 312.152 166 309 166 309Z" stroke="white" stroke-linecap="round" stroke-linejoin="round"/>
<path fill-rule="evenodd" clip-rule="evenodd" d="M195.342 311.84C194.525 314.652 193.403 317.367 191.996 319.937C189.777 323.873 185.059 325.202 186.481 327.565C187.009 328.464 192.608 326.848 194.823 322.924C197.038 319 195.342 311.84 195.342 311.84Z" fill="white" stroke="white" stroke-linecap="round" stroke-linejoin="round"/>
<path fill-rule="evenodd" clip-rule="evenodd" d="M171.342 323.861C171.342 323.861 183.722 328.164 186.181 330.219C188.561 332.215 185.266 334.017 182.764 332.709C180.262 331.401 171.342 323.861 171.342 323.861Z" stroke="white" stroke-linecap="round" stroke-linejoin="round"/>
<path fill-rule="evenodd" clip-rule="evenodd" d="M191.317 330.848C191.317 330.848 192.523 332.831 191.633 335.911C190.743 338.992 188.363 339.603 187.768 343.11C187.173 346.616 188.511 349.578 190.232 349.667C191.954 349.755 194.156 348.241 194.654 343.468C195.152 338.696 191.317 330.848 191.317 330.848Z" stroke="white" stroke-linecap="round" stroke-linejoin="round"/>
<path fill-rule="evenodd" clip-rule="evenodd" d="M174.502 338.595C174.502 338.595 175.852 340.046 179.055 342.004C182.257 343.962 189.603 346.198 188.607 350.405C188.291 351.734 186.05 352.004 182.523 349.05C178.996 346.097 174.502 338.595 174.502 338.595Z" stroke="white" stroke-linecap="round" stroke-linejoin="round"/>
<path fill-rule="evenodd" clip-rule="evenodd" d="M200.177 341.181C200.177 341.181 200.177 344.321 200.004 345.823C199.582 349.43 201.755 353.996 200.224 358.97C199.072 362.705 195.903 362.806 194.907 359.814C192.097 351.413 200.177 341.181 200.177 341.181Z" stroke="white" stroke-linecap="round" stroke-linejoin="round"/>
<path fill-rule="evenodd" clip-rule="evenodd" d="M179.62 354.375C179.62 354.375 183.059 361.616 186.987 363.397C190.915 365.177 195.726 362.641 195.346 361.481C193.574 356.101 188.823 359.717 185.831 358.08C182.034 356.008 179.62 354.375 179.62 354.375Z" fill="white" stroke="white" stroke-linecap="round" stroke-linejoin="round"/>
<path d="M166.629 309.325L177.557 314.19L180.089 315.878" stroke="white" stroke-linecap="round" stroke-linejoin="round"/>
<path d="M172.481 324.587C172.481 324.587 179.878 327.709 183.3 329.739C186.721 331.768 186.177 332.692 186.177 332.692" stroke="white" stroke-linecap="round" stroke-linejoin="round"/>
<path d="M189.519 349.177C189.519 349.177 188.291 345.346 190.641 342.101C192.291 339.827 192.329 333.405 192.329 333.405" stroke="white" stroke-linecap="round" stroke-linejoin="round"/>
<path d="M175.468 339.456C177.4 341.736 179.517 343.853 181.797 345.785C183.578 347.232 188.498 349.696 188.498 349.696" stroke="white" stroke-linecap="round" stroke-linejoin="round"/>
<path d="M195.768 360.76C195.768 360.76 194.924 357.566 196.165 352.882C196.587 351.338 200.241 341.912 200.241 341.912" stroke="white" stroke-linecap="round" stroke-linejoin="round"/>
<path fill-rule="evenodd" clip-rule="evenodd" d="M219.289 244C219.289 244 190.943 244.828 191 265.713C191.086 294.753 221 291.925 221 291.925C221 291.925 202.759 285.272 203.441 266.548C204.024 250.576 219.289 244 219.289 244Z" fill="white"/>
<path fill-rule="evenodd" clip-rule="evenodd" d="M117.565 270.807L108.202 287.116L107.622 322.419L117.356 328.623L127.353 323.049L127.457 287.538L117.565 270.807Z" stroke="black" stroke-linecap="round" stroke-linejoin="round"/>
<path fill-rule="evenodd" clip-rule="evenodd" d="M113.409 289.003L113.622 320.409L117.101 328.303L121.887 320.726L121.624 288.949L117.53 271.607L113.409 289.003Z" stroke="black" stroke-linecap="round" stroke-linejoin="round"/>
<path d="M108.148 287.167L113.56 289.011L121.45 289.165L127.291 287.271" stroke="black" stroke-linecap="round" stroke-linejoin="round"/>
<path d="M107.989 322.419L113.788 320.417L121.782 320.471L127.307 322.995" stroke="black" stroke-linecap="round" stroke-linejoin="round"/>
<path d="M106.497 258.946L115.814 267.385" stroke="black" stroke-linecap="round" stroke-linejoin="round"/>
<path d="M129.395 259.082L120.074 267.517" stroke="black" stroke-linecap="round" stroke-linejoin="round"/>
<path d="M117.801 246.947V267.513" stroke="black" stroke-linecap="round" stroke-linejoin="round"/>
<path d="M117.689 243.043H117.627L117.503 243H117.441L117.399 243.019V243.062L117.375 243.124V243.332L117.418 243.371L117.441 243.414H117.53H117.569L117.611 243.371V243.329L117.654 243.267L117.696 243.224V243.186V243.104V243.043H117.549V243.081" stroke="black" stroke-linecap="round" stroke-linejoin="round"/>
<path d="M131.992 256.573H131.93L131.807 256.53H131.745L131.702 256.55V256.592L131.679 256.654V256.863L131.722 256.901L131.745 256.944H131.834H131.872L131.915 256.901V256.859L131.958 256.797L132 256.754V256.716V256.635V256.573H131.853V256.611" stroke="black" stroke-linecap="round" stroke-linejoin="round"/>
<path d="M104.29 256.349H104.166L104.124 256.391L104.085 256.43L104.062 256.472V256.515L104.043 256.577L104 256.658V256.781L104.023 256.824L104.062 256.886L104.085 256.928L104.124 256.967L104.166 256.99L104.209 257.01H104.387L104.425 256.967L104.468 256.948L104.499 256.917L104.537 256.878L104.58 256.816V256.754V256.669L104.603 256.608V256.453L104.561 256.41V256.349L104.518 256.306L104.475 256.287L104.433 256.244" stroke="black" stroke-linecap="round" stroke-linejoin="round"/>
<path d="M178.245 316.135C178.245 316.135 183.008 321.367 184.409 327.814C186.215 336.135 183.599 341.844 186.721 349.084C190.916 358.836 198.599 367 198.599 367" stroke="black" stroke-linecap="round" stroke-linejoin="round"/>
<path fill-rule="evenodd" clip-rule="evenodd" d="M164 309C164 309 170.557 314.831 173.941 316.059C177.325 317.287 180.017 315.688 177.536 313.92C175.055 312.152 164 309 164 309Z" stroke="black" stroke-linecap="round" stroke-linejoin="round"/>
<path fill-rule="evenodd" clip-rule="evenodd" d="M193.342 311.84C192.525 314.652 191.403 317.367 189.996 319.937C187.777 323.873 183.059 325.202 184.481 327.565C185.009 328.464 190.608 326.848 192.823 322.924C195.038 319 193.342 311.84 193.342 311.84Z" fill="black" stroke="black" stroke-linecap="round" stroke-linejoin="round"/>
<path fill-rule="evenodd" clip-rule="evenodd" d="M169.342 323.861C169.342 323.861 181.722 328.164 184.181 330.219C186.561 332.215 183.266 334.017 180.764 332.709C178.262 331.401 169.342 323.861 169.342 323.861Z" stroke="black" stroke-linecap="round" stroke-linejoin="round"/>
<path fill-rule="evenodd" clip-rule="evenodd" d="M189.317 330.848C189.317 330.848 190.523 332.831 189.633 335.911C188.743 338.992 186.363 339.603 185.768 343.11C185.173 346.616 186.511 349.578 188.232 349.667C189.954 349.755 192.156 348.241 192.654 343.468C193.152 338.696 189.317 330.848 189.317 330.848Z" stroke="black" stroke-linecap="round" stroke-linejoin="round"/>
<path fill-rule="evenodd" clip-rule="evenodd" d="M172.502 338.595C172.502 338.595 173.852 340.046 177.055 342.004C180.257 343.962 187.603 346.198 186.607 350.405C186.291 351.734 184.05 352.004 180.523 349.05C176.996 346.097 172.502 338.595 172.502 338.595Z" stroke="black" stroke-linecap="round" stroke-linejoin="round"/>
<path fill-rule="evenodd" clip-rule="evenodd" d="M198.177 341.181C198.177 341.181 198.177 344.321 198.004 345.823C197.582 349.43 199.755 353.996 198.224 358.97C197.072 362.705 193.903 362.806 192.907 359.814C190.097 351.413 198.177 341.181 198.177 341.181Z" stroke="black" stroke-linecap="round" stroke-linejoin="round"/>
<path fill-rule="evenodd" clip-rule="evenodd" d="M177.62 354.375C177.62 354.375 181.059 361.616 184.987 363.397C188.915 365.177 193.726 362.641 193.346 361.481C191.574 356.101 186.823 359.717 183.831 358.08C180.034 356.008 177.62 354.375 177.62 354.375Z" fill="black" stroke="black" stroke-linecap="round" stroke-linejoin="round"/>
<path d="M164.629 309.325L175.557 314.19L178.089 315.878" stroke="black" stroke-linecap="round" stroke-linejoin="round"/>
<path d="M170.481 324.587C170.481 324.587 177.878 327.709 181.3 329.739C184.721 331.768 184.177 332.692 184.177 332.692" stroke="black" stroke-linecap="round" stroke-linejoin="round"/>
<path d="M187.519 349.177C187.519 349.177 186.291 345.346 188.641 342.101C190.291 339.827 190.329 333.405 190.329 333.405" stroke="black" stroke-linecap="round" stroke-linejoin="round"/>
<path d="M173.468 339.456C175.4 341.736 177.517 343.853 179.797 345.785C181.578 347.232 186.498 349.696 186.498 349.696" stroke="black" stroke-linecap="round" stroke-linejoin="round"/>
<path d="M193.768 360.76C193.768 360.76 192.924 357.566 194.165 352.882C194.587 351.338 198.241 341.912 198.241 341.912" stroke="black" stroke-linecap="round" stroke-linejoin="round"/>
<path fill-rule="evenodd" clip-rule="evenodd" d="M215.289 244C215.289 244 186.943 244.828 187 265.713C187.086 294.753 217 291.925 217 291.925C217 291.925 198.759 285.272 199.441 266.548C200.024 250.576 215.289 244 215.289 244Z" stroke="black" stroke-width="2" stroke-linecap="round" stroke-linejoin="round"/>
</svg>
