 <svg  version="1.0" xmlns="http://www.w3.org/2000/svg"  width="300.000000pt" height="169.000000pt" viewBox="0 0 300.000000 169.000000"  preserveAspectRatio="xMidYMid meet">  <g transform="translate(0.000000,169.000000) scale(0.100000,-0.100000)" fill="#ffffff" stroke="none"> <path d="M1875 1170 c-3 -5 -18 -10 -33 -10 -51 0 -72 -25 -72 -83 0 -62 20 -98 50 -90 32 8 36 -24 11 -72 -13 -24 -22 -51 -20 -61 5 -38 -10 -53 -49 -48 l-37 4 35 -10 c30 -8 37 -6 52 13 10 12 15 29 12 38 -2 10 5 38 18 63 25 52 18 81 -21 81 -30 1 -41 21 -41 82 0 56 14 73 59 73 12 0 30 6 41 12 16 10 24 10 43 -1 20 -13 21 -13 8 2 -15 19 -46 23 -56 7z"/> <path d="M1134 1139 c-14 -16 -19 -36 -19 -79 0 -32 4 -56 9 -53 4 3 5 29 2 57 -6 44 -4 55 13 70 18 16 25 17 69 5 49 -12 50 -13 41 -42 -5 -17 -7 -33 -4 -35 4 -4 8 8 19 64 1 7 -79 34 -100 34 -6 0 -19 -10 -30 -21z"/> <path d="M1921 1106 c-6 -7 -9 -20 -6 -28 4 -9 -1 -22 -9 -31 -23 -23 -20 -32 23 -66 28 -22 45 -46 56 -82 10 -28 19 -48 21 -46 13 13 -31 96 -67 128 -41 36 -41 37 -24 62 9 14 14 31 10 37 -4 6 -1 17 5 25 7 8 10 15 7 15 -2 0 -10 -6 -16 -14z"/> <path d="M1237 1024 c-10 -19 -23 -29 -38 -29 -16 0 -25 -7 -27 -20 -2 -18 -1 -18 8 -3 6 9 18 14 29 11 14 -3 23 4 35 28 20 40 13 52 -7 13z"/> <path d="M1051 971 c-17 -16 -31 -35 -31 -43 0 -7 8 -1 17 13 9 14 28 33 42 42 14 9 21 17 15 17 -7 0 -26 -13 -43 -29z"/> <path d="M1172 945 c2 -5 12 -27 21 -48 10 -21 15 -42 12 -47 -3 -5 0 -20 7 -34 9 -22 16 -25 42 -21 17 2 45 7 63 9 17 2 39 9 50 16 16 10 16 11 1 6 -13 -4 -22 4 -33 24 -9 17 -18 30 -21 30 -2 0 2 -13 11 -30 l15 -29 -37 -6 c-21 -4 -45 -9 -55 -11 -20 -6 -30 9 -34 53 -1 18 -12 48 -24 66 -12 17 -20 28 -18 22z"/> <path d="M1338 914 c-40 -21 -34 -27 8 -7 33 16 37 16 65 1 16 -10 29 -14 29 -9 0 9 -45 31 -63 31 -7 -1 -24 -8 -39 -16z"/> <path d="M1594 920 c-32 -13 -34 -21 -13 -60 10 -19 18 -31 19 -27 0 4 -7 21 -15 36 -14 28 -14 29 15 41 24 10 36 10 60 0 35 -15 37 -24 11 -67 l-20 -31 22 -6 c33 -9 47 -7 47 5 0 5 -8 9 -17 8 -32 -3 -34 1 -18 31 21 40 19 47 -15 65 -32 17 -45 18 -76 5z"/> <path d="M997 865 c-9 -26 -34 -74 -57 -107 -22 -33 -40 -66 -40 -73 0 -14 32 -25 70 -24 17 1 11 4 -17 11 -24 5 -43 13 -43 17 0 5 17 33 37 62 36 53 78 147 70 156 -3 2 -12 -17 -20 -42z"/> <path d="M1623 883 c-7 -2 -13 -14 -13 -24 0 -25 16 -17 23 11 3 11 4 20 4 19 -1 0 -8 -3 -14 -6z"/> <path d="M1406 855 c-20 -30 -20 -35 -1 -35 21 0 19 -13 -5 -35 -11 -10 -28 -15 -40 -12 -11 3 -45 -3 -75 -14 -70 -25 -89 -24 -109 4 l-17 22 11 -23 c16 -34 35 -37 98 -17 32 9 71 17 89 16 21 -1 39 7 53 21 24 26 25 37 5 44 -12 5 -12 9 2 30 8 13 13 24 10 24 -2 0 -12 -11 -21 -25z"/> <path d="M2010 830 c0 -8 16 -35 35 -58 35 -45 51 -79 41 -89 -3 -3 -20 -9 -38 -13 l-33 -8 30 -1 c63 -2 71 37 20 97 -14 17 -32 43 -40 59 -8 15 -15 21 -15 13z"/> <path d="M1590 815 c0 -6 7 -21 16 -33 12 -17 24 -22 52 -20 20 1 48 -1 62 -5 19 -5 18 -4 -5 7 -16 8 -43 12 -60 9 -25 -4 -33 0 -47 24 -10 15 -18 23 -18 18z"/> <path d="M1112 777 c-36 -37 -41 -70 -16 -106 l16 -23 -58 6 -59 5 58 -11 c32 -6 60 -8 63 -5 4 3 -1 16 -10 29 -9 12 -16 32 -16 44 0 28 48 87 62 77 7 -3 8 -1 4 5 -9 16 -8 17 -44 -21z"/> <path d="M1846 773 c-25 -31 -32 -34 -65 -29 -26 4 -30 3 -16 -4 40 -18 64 -11 88 25 l24 35 23 -25 c34 -36 31 -82 -6 -112 l-29 -23 35 1 c19 0 53 4 75 9 34 8 31 8 -19 4 l-59 -6 22 27 c25 33 26 48 5 84 -30 50 -47 53 -78 14z"/> <path d="M1143 704 c-3 -8 -1 -20 4 -25 5 -5 149 -8 359 -7 341 3 349 3 349 23 0 20 -8 20 -353 23 -314 2 -353 1 -359 -14z m707 -9 c0 -13 -46 -15 -350 -15 -304 0 -350 2 -350 15 0 13 46 15 350 15 304 0 350 -2 350 -15z"/> <path d="M900 623 c0 -17 41 -73 52 -72 10 0 10 2 0 6 -7 3 -19 18 -27 34 l-15 28 102 4 103 3 -107 2 c-60 1 -108 -1 -108 -5z"/> <path d="M1135 623 c66 -15 85 -25 85 -47 0 -12 -24 -52 -52 -89 l-53 -67 -65 0 -64 0 62 63 63 64 -68 0 c-65 -1 -66 -1 -11 -4 l57 -4 -54 -56 c-30 -30 -52 -59 -49 -64 3 -5 34 -9 69 -9 l63 0 50 63 c67 85 74 100 59 120 -15 19 -60 37 -90 36 -20 -1 -20 -2 -2 -6z"/> <path d="M1803 615 c-47 -20 -42 -44 25 -130 l57 -75 68 0 c38 0 67 4 67 10 0 14 -68 87 -104 112 -19 12 -11 2 20 -28 87 -83 87 -84 13 -83 l-64 0 -45 61 c-25 33 -49 66 -55 74 -16 22 7 47 56 60 30 8 36 12 19 13 -14 0 -40 -6 -57 -14z"/> <path d="M1999 621 l104 -6 -27 -32 c-15 -18 -23 -33 -17 -33 11 0 51 57 51 73 0 4 -48 6 -107 5 l-108 -2 104 -5z"/> <path d="M1948 543 c17 -2 47 -2 65 0 17 2 3 4 -33 4 -36 0 -50 -2 -32 -4z"/> </g> </svg> 